<?xml version="1.0" encoding="UTF-8" standalone="no"?>
<svg id="svg2" xmlns:rdf="http://www.w3.org/1999/02/22-rdf-syntax-ns#" xmlns="http://www.w3.org/2000/svg" viewBox="0 0 100 100" version="1.1" xmlns:cc="http://creativecommons.org/ns#" xmlns:dc="http://purl.org/dc/elements/1.1/">
 <defs id="defs4">
  <radialGradient id="a" gradientUnits="userSpaceOnUse" cy="677.36" cx="375" r="375">
   <stop id="stop7" stop-color="#ff2701" offset="0"/>
   <stop id="stop9" stop-color="#de2200" offset="1"/>
  </radialGradient>
 </defs>
 <g id="g11" transform="matrix(.125 0 0 .125 0 -31.545)">
  <path id="path13" d="m375 341.36c-87.964 0-175.39 36.212-237.59 98.412s-98.412 149.62-98.412 237.59c0.000007 87.964 36.212 175.39 98.412 237.59s149.62 98.412 237.59 98.412c87.964 0 175.39-36.212 237.59-98.412s98.412-149.62 98.412-237.59c0-87.964-36.212-175.39-98.412-237.59-62.2-62.19-149.63-98.41-237.59-98.41z" fill-opacity="0" transform="matrix(0,-1.0417,1.0417,0,-330.59,1068)"/>
  <g id="g15">
   <circle id="circle17" cy="652.36" cx="400" r="400" fill="#fff"/>
   <g id="g19" transform="translate(25,-25)">
    <circle id="circle21" cy="677.36" cx="375" r="375" fill="url(#a)"/>
    <g id="g23" fill="#fff">
     <g id="g25" transform="translate(25.438,-375)">
      <path id="path27" d="m9.5625 988.99q0-8 3-15.875 3-8 8.75-14.25t14-10.125 18.75-3.875q12.5 0 21.625 5.375 9.25 5.375 13.75 14l-15.75 11q-1.5-3.5-3.875-5.75-2.25-2.375-5-3.75-2.75-1.5-5.625-2-2.875-0.625-5.625-0.625-5.875 0-10.25 2.375t-7.25 6.125-4.25 8.5-1.375 9.625q0 5.25 1.625 10.125t4.625 8.625q3.125 3.75 7.375 6 4.375 2.125 9.75 2.125 2.75 0 5.625-0.625 3-0.75 5.625-2.125 2.75-1.5 5-3.75 2.25-2.375 3.625-5.75l16.75 9.875q-2 4.875-6 8.75-3.875 3.875-9 6.5t-10.875 4-11.25 1.375q-9.625 0-17.75-3.875-8-4-13.875-10.5-5.75-6.5-9-14.75-3.125-8.25-3.125-16.75z"/>
      <path id="path29" d="m239.75 1034.2v-88.75h20.5v88.75h-20.5z"/>
      <path id="path31" d="m449.88 1034.9q-9.875 0-18-3.875t-13.875-10.125q-5.75-6.375-9-14.5-3.125-8.125-3.125-16.75 0-8.75 3.25-16.875 3.375-8.125 9.25-14.25 6-6.25 14.125-9.875 8.125-3.75 17.75-3.75 9.875 0 18 3.875t13.875 10.25 8.875 14.5 3.125 16.5q0 8.75-3.375 16.875-3.25 8.125-9.125 14.375-5.875 6.125-14 9.875t-17.75 3.75zm-23.13-45.04q0 5.125 1.5 10 1.5 4.75 4.375 8.5 3 3.75 7.375 6t10 2.25q5.875 0 10.25-2.375t7.25-6.125q2.875-3.875 4.25-8.625 1.5-4.875 1.5-9.875 0-5.125-1.5-9.875-1.5-4.875-4.5-8.5-3-3.75-7.375-5.875-4.25-2.25-9.875-2.25-5.875 0-10.25 2.375-4.25 2.25-7.25 6-2.875 3.75-4.375 8.625-1.375 4.75-1.375 9.75z"/>
      <path id="path33" d="m673.94 971.36q-0.375-0.5-2.625-1.875t-5.625-2.875-7.375-2.625-8-1.125q-11 0-11 7.375 0 2.25 1.125 3.75 1.25 1.5 3.5 2.75 2.375 1.125 5.875 2.125t8.125 2.25q6.375 1.75 11.5 3.875 5.125 2 8.625 5.125 3.625 3 5.5 7.375 2 4.375 2 10.5 0 7.5-2.875 12.75-2.75 5.125-7.375 8.375-4.625 3.125-10.625 4.625-6 1.375-12.375 1.375-4.875 0-10-0.75t-10-2.125q-4.875-1.5-9.5-3.5-4.5-2-8.375-4.625l9-17.875q0.5 0.625 3.25 2.375t6.75 3.5q4.125 1.75 9.125 3.125t10.125 1.375q10.875 0 10.875-6.625 0-2.5-1.625-4.125t-4.5-2.875q-2.875-1.375-6.875-2.5-3.875-1.125-8.5-2.5-6.125-1.875-10.625-4-4.5-2.25-7.5-5.125-2.875-2.875-4.375-6.625-1.375-3.75-1.375-8.75 0-7 2.625-12.375t7.125-9q4.5-3.75 10.375-5.625 6-1.875 12.625-1.875 4.625 0 9.125 0.875t8.625 2.25 7.625 3.125q3.625 1.75 6.625 3.5l-9 17z"/>
     </g>
     <path id="path35" d="m366.74 327.46a350 350 0 0 0 -166.74 46.79 350 350 0 0 0 -151.49 178.11h76.494v125h100v-125h100v125h50 50v-125h100v125h100v-125h76.494a350 350 0 0 0 -151.47 -178.11 350 350 0 0 0 -183.26 -46.79z"/>
     <path id="path37" d="m110.24 874.42q0.0661 1.5994 1.5602 5.6016 1.5761 4.0965 5.1044 8.1514 3.0359 3.4891 5.9727 4.579 3.031 1.0079 6.4675 0.006 3.4364-1.0018 7.4546-4.001 4.1945-2.987 9.4753-7.5819l34.042-29.621 13.457 15.465-34.042 29.621q-7.6382 6.6463-14.695 11.295-6.8802 4.6611-13.692 5.7829-6.7295 1.2161-13.694-1.837-6.9647-3.0531-14.514-11.729-7.3847-8.487-8.4869-18.132l15.59-7.6003z"/>
     <path id="path39" d="m232.21 978.55-9.253 15.44-53.503-32.064 45.622-76.126 52.538 31.486-9.253 15.44-34.954-20.948-8.8674 14.796 30.022 17.992-8.5462 14.26-30.022-17.992-9.7028 16.19 35.919 21.526z"/>
     <path id="path41" d="m272.27 1013.3 18.06-86.893 39.163 8.1396q6.1192 1.2718 10.725 4.9102 4.7284 3.6638 7.6575 8.6134t3.9159 10.645q1.1092 5.7204-0.01 11.105-0.83939 4.0387-2.607 7.6291-1.7422 3.468-4.2647 6.3909-2.5225 2.9228-5.7746 5.0557-3.1042 2.0359-6.7902 3.1849l12.377 36.278-22.641-4.7057-10.819-31.485-13.095-2.7217-5.8249 28.026-20.071-4.1715zm29.533-41.356 18.358 3.8154q3.5492 0.73765 6.806-2.0326 3.2823-2.8926 4.376-8.1552 1.1192-5.3849-1.1567-9.1774t-5.7027-4.5047l-17.746-3.6882-4.9346 23.743z"/>
     <path id="path43" d="m438.54 958.25q-0.44352-0.44036-2.8691-1.4747t-5.9824-2.0292q-3.5568-0.99489-7.6776-1.5282-4.1208-0.53325-8.0786 0.0466-10.884 1.5946-9.8147 8.8917 0.32617 2.2262 1.6567 3.5473 1.4542 1.303 3.8617 2.2136 2.513 0.76883 6.121 1.2509 3.608 0.48206 8.3653 1.0484 6.5614 0.80736 11.94 2.167 5.3608 1.2359 9.2768 3.8205 4.0216 2.4428 6.511 6.4998 2.6131 4.0388 3.501 10.099 1.0872 7.4208-0.99631 13.032-1.978 5.4695-6.083 9.3556-4.1231 3.7625-9.8423 6.1164-5.7373 2.2303-12.045 3.1545-4.8235 0.7067-10.003 0.7075-5.1796 0.0009-10.202-0.6529-5.041-0.7774-9.907-2.0858-4.7424-1.3265-8.957-3.3621l6.3137-18.991q0.58532 0.5459 3.56 1.8787 2.9746 1.3329 7.1861 2.4845 4.3351 1.1336 9.4816 1.7692 5.1465 0.6357 10.217-0.1073 10.76-1.5765 9.7997-8.1315-0.36241-2.4736-2.2058-3.8459t-4.8692-2.1923q-3.044-0.9437-7.1648-1.477-3.9972-0.55138-8.7726-1.2414-6.3321-0.96727-11.093-2.4175-4.7786-1.5739-8.1637-3.9836-3.2614-2.4278-5.2892-5.9208-1.9041-3.5111-2.6289-8.4582-1.0148-6.926 0.80332-12.625 1.8181-5.6988 5.745-9.9378 3.9088-4.3627 9.45-7.0696 5.6648-2.725 12.22-3.6854 4.5762-0.67047 9.1555-0.45705 4.5793 0.21341 8.8601 0.9759t7.9975 1.9866q3.8404 1.206 7.0624 2.5026l-6.4405 18.125z"/>
     <path id="path45" d="m556.09 957.33 8.1814 16.033-55.56 28.351-40.339-79.053 54.557-27.84 8.1814 16.033-36.297 18.522 7.8406 15.365 31.176-15.908 7.5565 14.808-31.176 15.908 8.5792 16.813 37.299-19.033z"/>
     <path id="path47" d="m551.64 870.81 42.761 14.064-16.334-42.061 15.359-16.271 20.833 63.154 21.998 20.764-13.986 14.817-22.18-20.936-63.724-17.35 15.273-16.18z"/>
    </g>
   </g>
  </g>
 </g>
</svg>
